<svg id="Layer_1" data-name="Layer 1" xmlns="http://www.w3.org/2000/svg" viewBox="0 0 255.33 39.67"><defs><style>.cls-1{fill:#fff;}.cls-2{fill:#f58220;}</style></defs><title>logo-color-on-dark</title><rect class="cls-1" x="20.6" y="11.02" width="2.12" height="2.12" transform="translate(-2.97 14.97) rotate(-35.84)"/><rect class="cls-2" x="18.4" y="8.06" width="2.12" height="2.12" transform="translate(-1.66 13.11) rotate(-35.8)"/><rect class="cls-1" x="21.56" y="14.94" width="1.72" height="1.72" transform="translate(-5 16.13) rotate(-35.87)"/><rect class="cls-1" x="24.28" y="11.98" width="1.72" height="1.72" transform="translate(-2.76 17.12) rotate(-35.77)"/><rect class="cls-2" x="26.68" y="8.78" width="1.72" height="1.72" transform="translate(-0.44 17.92) rotate(-35.78)"/><rect class="cls-2" x="27.3" y="5.58" width="1.72" height="1.72" transform="translate(1.55 17.69) rotate(-35.8)"/><rect class="cls-2" x="23.08" y="7.58" width="1.72" height="1.72" transform="translate(-0.41 15.59) rotate(-35.78)"/><rect class="cls-1" x="17.27" y="13.52" width="2.04" height="2.12" transform="translate(-5.07 13.45) rotate(-35.8)"/><path class="cls-1" d="M18.08,16l-1.72,1.24-1.24-1.72L13.4,16.8l-1.24-1.72,1.72-1.24,1.24,1.72,1.72-1.24L15.6,12.6l1.65-1.19L16,9.63a25.34,25.34,0,0,0-7.8,7.47A9,9,0,0,0,12.43,25a31.29,31.29,0,0,1,6.86-7.26Z"/><path class="cls-2" d="M30.67,23c-7.87,5.23-17.26,4.93-21-.67a8.82,8.82,0,0,1-1.5-5.21c-2.93,4.62-3.52,9.75-1,13.51,3.86,5.8,13.58,6.11,21.72.7,6.5-4.33,10-11,9.21-16.46A21.69,21.69,0,0,1,30.67,23Z"/><path class="cls-2" d="M77.7,28a13,13,0,0,1-17.2.8,12.2,12.2,0,0,1-4.66-9.69,12.13,12.13,0,0,1,3.72-8.88,13,13,0,0,1,18.14,0,12.18,12.18,0,0,1,3.72,8.88A12.15,12.15,0,0,1,77.7,28Zm-1.54-8.88c0-4.42-3.12-8-7.51-8s-7.54,3.62-7.54,8,3,8,7.54,8S76.16,23.54,76.16,19.08Z"/><path class="cls-2" d="M84,15h4.46v2.65a5.83,5.83,0,0,1,5.36-3.19c4.56,0,7.27,3.19,7.27,8.58S98.19,31.65,94,31.65A5.9,5.9,0,0,1,88.5,28.7a21.18,21.18,0,0,1,.17,2.95v6.67H84Zm8.31,12.6c2.55,0,4.06-1.71,4.06-4.59s-1.54-4.69-4.09-4.69c-2.38,0-4,1.71-4,4.69S89.77,27.56,92.32,27.56Z"/><path class="cls-2" d="M106.94,24.14c.37,2.31,1.68,3.45,3.92,3.45a4.1,4.1,0,0,0,3.75-2l3.75,1.88a8.27,8.27,0,0,1-7.61,4.16c-5.3,0-8.45-3.45-8.45-8.58a8.25,8.25,0,0,1,8.48-8.65c5.06,0,8.28,3.19,8.28,8.52,0,.4,0,.8-.07,1.21Zm3.85-5.9a3.42,3.42,0,0,0-3.72,3.08h7.31A3.25,3.25,0,0,0,110.8,18.24Z"/><path class="cls-2" d="M121.19,15h4.56v2.51a7.24,7.24,0,0,1,5.93-3.05c2.48,0,4.16.84,5.13,2.55a8.42,8.42,0,0,1,.67,4.16V31h-4.66V23.07c0-3.05-.27-4.86-3.05-4.86a3.75,3.75,0,0,0-3.12,1.54,5.5,5.5,0,0,0-.8,3.55V31h-4.66Z"/><path class="cls-1" d="M152.64,9.12A9.65,9.65,0,0,0,145.8,12a9.76,9.76,0,0,0-2.75,7.07,9.57,9.57,0,0,0,1.64,5.67A9.75,9.75,0,0,0,152.77,29a10,10,0,0,0,7.84-3.79V29a13.74,13.74,0,0,1-8.08,2.62,12.37,12.37,0,0,1-7.07-2.21,12.15,12.15,0,0,1-5.4-10.29A12.13,12.13,0,0,1,143.82,10a12.37,12.37,0,0,1,8.92-3.52,13.49,13.49,0,0,1,7.88,2.58v3.72A10.28,10.28,0,0,0,152.64,9.12Z"/><path class="cls-1" d="M164,5.64h2.61V31H164Z"/><path class="cls-1" d="M172.05,6.95a1.9,1.9,0,0,1,1.88,1.91,1.88,1.88,0,0,1-3.76,0A1.87,1.87,0,0,1,172.05,6.95ZM170.78,16h2.58V31h-2.58Z"/><path class="cls-1" d="M177.42,16h2.51v2.31a6.16,6.16,0,0,1,5.46-2.85c3.49,0,5.63,1.94,5.63,5.33V31h-2.62V22.2c0-3-1.24-4.49-3.92-4.49a4.58,4.58,0,0,0-3.65,1.61c-.87,1.07-.87,2.31-.87,4V31h-2.55Z"/><path class="cls-1" d="M196.16,6.95A1.9,1.9,0,0,1,198,8.86a1.88,1.88,0,0,1-3.75,0A1.87,1.87,0,0,1,196.16,6.95ZM194.88,16h2.58V31h-2.58Z"/><path class="cls-1" d="M213,30.44a9.88,9.88,0,0,1-5,1.21c-4.66,0-7.71-3.25-7.71-8,0-4.89,3.32-8.18,7.81-8.18a10.68,10.68,0,0,1,4.66,1v2.75A7.52,7.52,0,0,0,208.6,18c-3.29,0-5.56,2.21-5.56,5.77a5.29,5.29,0,0,0,5.36,5.43A7.68,7.68,0,0,0,213,27.46Z"/><path class="cls-1" d="M229.18,31H226.7V28.3a6,6,0,0,1-5.43,3.35c-4.29,0-7.17-3.18-7.17-8.08s2.85-8.08,7-8.08a5.79,5.79,0,0,1,5.5,3.35V16h2.55Zm-7.48-13c-3.08,0-4.89,2-4.89,5.4,0,3.62,1.81,5.67,5,5.67,3,0,4.89-2,4.89-5.43S224.59,18,221.71,18Z"/></svg>