<?xml version="1.0" encoding="utf-8"?>
<!-- Generator: Adobe Illustrator 23.0.1, SVG Export Plug-In . SVG Version: 6.00 Build 0)  -->
<svg version="1.1" id="Layer_1" xmlns="http://www.w3.org/2000/svg" xmlns:xlink="http://www.w3.org/1999/xlink" x="0px" y="0px"
	 viewBox="0 0 384 512" style="enable-background:new 0 0 384 512;" xml:space="preserve">
<path d="M226-0.3L0-0.1C0,38.7,0,21.5,0,48v464c27.5,0,21.5,0,48,0h288c26.5,0,19.5,0,48,0V156.5L226-0.3z M349.6,176v301.6H34.4
	V34.3H208L349.6,176z"/>
<path d="M334.8,394l-76.7-76.7c13.8-19.1,22.1-42.4,22.1-67.7c0.1-63.6-51.8-115.4-115.4-115.4S49.2,186,49.2,249.7
	S101,365.2,164.7,365.2c25.3,0,48.6-8.3,67.7-22.1l76.6,76.6L334.8,394z M164.7,328.8c-43.6,0-79.1-35.5-79.1-79.1
	s35.5-79.1,79.1-79.1c43.6,0,79.1,35.5,79.1,79.1C243.9,293.3,208.3,328.8,164.7,328.8z"/>
</svg>
